<svg width="433" height="337" viewBox="0 0 433 337" fill="none" xmlns="http://www.w3.org/2000/svg">
<path fill-rule="evenodd" clip-rule="evenodd" d="M98.43 272C100.65 281.83 95.01 284.71 90 285.73C99.36 286 100.44 287.34 103 297.25C101.94 289.83 102 284.41 111.84 281.03C109.89 281.36 100.21 285.76 98.43 272Z" stroke="#01221D" stroke-width="1.42" stroke-linecap="round" stroke-linejoin="round"/>
<path fill-rule="evenodd" clip-rule="evenodd" d="M186.25 30.69C188.47 40.52 182.83 43.4 177.82 44.42C187.18 44.69 188.26 46.03 190.82 55.94C189.76 48.52 189.82 43.1 199.66 39.72C197.71 40.1 188 44.48 186.25 30.69Z" stroke="#01221D" stroke-width="1.42" stroke-linecap="round" stroke-linejoin="round"/>
<path d="M303 272C305.93 273.71 307.74 274.48 310.06 277" stroke="#01221D" stroke-width="1.42" stroke-linecap="round" stroke-linejoin="round"/>
<path d="M285 277C286.11 280.21 287 282 287.08 285.41" stroke="#01221D" stroke-width="1.42" stroke-linecap="round" stroke-linejoin="round"/>
<path d="M163.17 24C165.25 26.68 166.65 28.07 167.84 31.29" stroke="#01221D" stroke-width="1.42" stroke-linecap="round" stroke-linejoin="round"/>
<path d="M265.15 277C263.64 280 262.54 281.67 262 285.07" stroke="#01221D" stroke-width="1.42" stroke-linecap="round" stroke-linejoin="round"/>
<path d="M233.036 137.844L151.232 150.042C147.313 150.627 144.412 153.992 144.412 157.955V253.506C144.412 258.394 148.757 262.139 153.592 261.418L268.91 244.228C273.932 243.479 276.995 238.301 275.233 233.539L241.719 142.979C240.405 139.429 236.781 137.285 233.036 137.844Z" fill="#F5B3A5"/>
<path d="M211.532 252.781L153.592 261.418C148.757 262.139 144.412 258.394 144.412 253.506V157.974C144.412 156.055 145.089 154.188 146.435 152.82C147.264 151.978 148.093 151.204 148.5 151M259.057 189.83L240.949 142.766C240.076 140.497 237.931 138.5 235.5 138.5V138.5" stroke="#01221D" stroke-width="1.42"/>
<path d="M148.5 151L165.462 137.834C166.967 136.666 168.749 135.908 170.635 135.636L245.803 124.787C246.739 124.652 247.322 125.773 246.674 126.462L235.294 138.553" stroke="#01221D" stroke-width="1.42" stroke-linecap="round"/>
<path d="M246.134 125.212C259.474 121.043 280.652 166.401 298.662 231.103" stroke="#01221D" stroke-width="1.42" stroke-linecap="round"/>
<path d="M169.5 152C166.317 133.431 167.016 94.7605 193.768 97.0793C196.439 97.3109 199.079 98.1399 201.284 99.6656C214.303 108.673 220.965 133.021 222.5 143" stroke="#01221D" stroke-width="1.42" stroke-linecap="round"/>
<path d="M190.578 131.986C189.004 115.643 192.176 84.2184 214.789 86.8638C218.072 87.2479 221.235 88.529 223.752 90.6718C233.961 99.3641 237.876 117.055 238.557 125.691" stroke="#01221D" stroke-width="1.42" stroke-linecap="round"/>
<path d="M246.772 219.345C255.598 199.151 274.85 200.465 285.425 204.272C287.113 204.879 288.672 205.793 290.075 206.911C314.461 226.345 307.351 257.931 280.436 261.529C252.756 265.23 234.802 246.728 246.772 219.345Z" fill="#07BFA5"/>
<path d="M258.641 233.604C267.812 234.438 286.489 235.605 287.823 233.604" stroke="white" stroke-width="1.42" stroke-linecap="round"/>
<path d="M272.68 248.748C273.513 239.576 274.681 220.899 272.68 219.565" stroke="white" stroke-width="1.42" stroke-linecap="round"/>
<path d="M143.575 187.746C67.7042 234.438 76.8723 275.126 260.305 187.746C489.595 78.5203 312 97.6973 295.324 117.708C278.649 137.719 328.676 126.046 313.668 117.708C298.659 109.37 274.48 119.376 256.97 127.713" stroke="#01221D" stroke-width="1.42" stroke-linecap="round"/>
<path d="M329.416 36.1398C318.921 39.3179 315.723 30.8028 315.367 26.7434C315.329 26.3034 315.043 25.9158 314.62 25.7889L299.62 21.2889C299.089 21.1296 298.53 21.4327 298.373 21.9646L294.724 34.3718C294.587 34.8363 294.803 35.3319 295.236 35.5484L301.767 38.8141C302.321 39.0909 302.493 39.7989 302.128 40.2985L288.983 58.2857C287.921 59.7399 288.37 61.796 289.942 62.6746L312.779 75.4367C314.2 76.2305 315.994 75.7472 316.824 74.3473L328.198 55.1524C328.466 54.701 329.037 54.5331 329.506 54.7678L334.597 57.3132C335.029 57.5294 335.554 57.4054 335.844 57.0188L342.307 48.4013C342.614 47.9919 342.564 47.4189 342.192 47.068C339.376 44.4171 335.212 40.277 333.176 37.594C332.611 36.8489 330.311 35.8687 329.416 36.1398Z" fill="#FFBD59"/>
<path d="M346.183 47.6811L339.179 57.0188C338.889 57.4054 338.364 57.5294 337.932 57.3132L332.841 54.7678C332.372 54.5331 331.801 54.701 331.534 55.1524L320.159 74.3473C319.329 75.7471 317.535 76.2305 316.114 75.4367L293.277 62.6746C291.705 61.796 291.256 59.7399 292.318 58.2857L298.24 50.1824L305.463 40.2985C305.828 39.7989 305.656 39.0909 305.103 38.8141L298.571 35.5484C298.138 35.3319 297.923 34.8363 298.059 34.3718L301.992 21" stroke="#01221D" stroke-width="1.42" stroke-linecap="round"/>
<path d="M69.2269 125.945C75.9183 118.848 92.3561 110.506 104.576 133.911L111.74 130.307C112.011 130.171 112.333 130.16 112.596 130.312C113.531 130.852 114.596 131.842 113.517 132.771C111.955 134.117 113.745 134.336 113.75 136.572C113.755 138.808 113.761 141.044 112.193 140.154C110.626 139.263 112.645 142.165 112.201 143.508C111.846 144.582 106.97 137.557 104.576 133.911C97.6606 140.933 80.9095 149.172 69.2269 125.945C67.071 128.335 62.3115 132.893 60.5205 132.002C58.2818 130.89 62.9733 129.09 62.302 128.868C61.6306 128.646 59.8386 127.308 61.176 125.516C62.5134 123.724 63.4094 124.393 62.0641 122.831C61.198 121.825 62.2042 120.748 63.1734 120.092C63.5535 119.835 64.0556 119.94 64.355 120.288L69.2269 125.945Z" fill="#FF6264"/>
<path d="M69.2269 125.945C75.9183 118.848 92.3561 110.506 104.576 133.911L111.74 130.307C112.011 130.171 112.333 130.16 112.596 130.312C113.531 130.852 114.596 131.842 113.517 132.771C111.955 134.117 113.745 134.336 113.75 136.572C113.755 138.808 113.761 141.044 112.193 140.154C110.626 139.263 112.645 142.165 112.201 143.508C111.846 144.582 106.97 137.557 104.576 133.911C97.6606 140.933 80.9095 149.172 69.2269 125.945C67.071 128.335 62.3115 132.893 60.5205 132.002C58.2818 130.89 62.9733 129.09 62.302 128.868C61.6306 128.646 59.8386 127.308 61.176 125.516C62.5134 123.724 63.4094 124.393 62.0641 122.831C61.198 121.825 62.2042 120.748 63.1734 120.092C63.5535 119.835 64.0556 119.94 64.355 120.288L69.2269 125.945Z" fill="#FF6264"/>
<path d="M69.2269 125.945C75.9183 118.848 92.3561 110.506 104.576 133.911M69.2269 125.945C80.9095 149.172 97.6606 140.933 104.576 133.911M69.2269 125.945L64.355 120.288C64.0556 119.94 63.5535 119.835 63.1734 120.092C62.2042 120.748 61.198 121.825 62.0641 122.831C63.4094 124.393 62.5134 123.724 61.176 125.516C59.8386 127.308 61.6306 128.646 62.302 128.868C62.9733 129.09 58.2818 130.89 60.5205 132.002C62.3115 132.893 67.071 128.335 69.2269 125.945ZM104.576 133.911L111.74 130.307C112.011 130.171 112.333 130.16 112.596 130.312C113.531 130.852 114.596 131.842 113.517 132.771C111.955 134.117 113.745 134.336 113.75 136.572C113.755 138.808 113.761 141.044 112.193 140.154C110.626 139.263 112.645 142.165 112.201 143.508C111.846 144.582 106.97 137.557 104.576 133.911Z" stroke="#01221D" stroke-width="1.42" stroke-linecap="round"/>
</svg>
