<svg width="20" height="20" viewBox="0 0 20 20" fill="none" xmlns="http://www.w3.org/2000/svg">
<path d="M14.5 7C14.5 5.67392 13.9732 4.40215 13.0355 3.46447C12.0979 2.52678 10.8261 2 9.5 2C8.17392 2 6.90215 2.52678 5.96447 3.46447C5.02678 4.40215 4.5 5.67392 4.5 7C4.5 12.8333 2 14.5 2 14.5H17C17 14.5 14.5 12.8333 14.5 7Z" stroke="#01040D" stroke-width="1.4" stroke-linecap="round" stroke-linejoin="round"/>
<path d="M10.9417 17.8334C10.7952 18.0859 10.5849 18.2956 10.3319 18.4413C10.0789 18.587 9.792 18.6638 9.50002 18.6638C9.20803 18.6638 8.92117 18.587 8.66816 18.4413C8.41515 18.2956 8.20486 18.0859 8.05835 17.8334" stroke="#01040D" stroke-width="1.4" stroke-linecap="round" stroke-linejoin="round"/>
</svg>
