<svg width="20" height="20" viewBox="0 0 20 20" fill="none" xmlns="http://www.w3.org/2000/svg">
<path d="M10.335 12.6081C11.5905 12.6081 12.6082 11.5904 12.6082 10.3349C12.6082 9.07951 11.5905 8.06177 10.335 8.06177C9.07957 8.06177 8.06183 9.07951 8.06183 10.3349C8.06183 11.5904 9.07957 12.6081 10.335 12.6081Z" stroke="#01040D" stroke-width="1.4" stroke-linecap="round" stroke-linejoin="round"/>
<path d="M15.9422 12.6082C15.8413 12.8367 15.8112 13.0902 15.8558 13.336C15.9004 13.5818 16.0175 13.8087 16.1922 13.9872L16.2377 14.0327C16.3786 14.1735 16.4904 14.3406 16.5666 14.5246C16.6429 14.7085 16.6822 14.9057 16.6822 15.1049C16.6822 15.304 16.6429 15.5012 16.5666 15.6852C16.4904 15.8692 16.3786 16.0363 16.2377 16.1771C16.097 16.318 15.9298 16.4298 15.7458 16.506C15.5619 16.5823 15.3647 16.6215 15.1655 16.6215C14.9664 16.6215 14.7692 16.5823 14.5852 16.506C14.4012 16.4298 14.2341 16.318 14.0933 16.1771L14.0479 16.1316C13.8693 15.9569 13.6425 15.8397 13.3967 15.7952C13.1509 15.7506 12.8973 15.7807 12.6688 15.8816C12.4447 15.9776 12.2536 16.1371 12.1189 16.3404C11.9843 16.5437 11.912 16.7819 11.9111 17.0257V17.1545C11.9111 17.5565 11.7514 17.9419 11.4672 18.2261C11.183 18.5103 10.7975 18.67 10.3956 18.67C9.99369 18.67 9.60823 18.5103 9.32403 18.2261C9.03983 17.9419 8.88016 17.5565 8.88016 17.1545V17.0863C8.8743 16.8355 8.79311 16.5923 8.64717 16.3883C8.50123 16.1842 8.29727 16.0288 8.06182 15.9422C7.83328 15.8413 7.57976 15.8112 7.33395 15.8558C7.08815 15.9004 6.86133 16.0175 6.68275 16.1922L6.63729 16.2377C6.49655 16.3786 6.32941 16.4904 6.14544 16.5666C5.96146 16.6429 5.76426 16.6822 5.56511 16.6822C5.36595 16.6822 5.16875 16.6429 4.98478 16.5666C4.8008 16.4904 4.63367 16.3786 4.49292 16.2377C4.35202 16.097 4.24024 15.9298 4.16398 15.7458C4.08771 15.5619 4.04846 15.3647 4.04846 15.1655C4.04846 14.9664 4.08771 14.7692 4.16398 14.5852C4.24024 14.4012 4.35202 14.2341 4.49292 14.0933L4.53839 14.0479C4.71307 13.8693 4.83025 13.6425 4.87482 13.3967C4.91939 13.1509 4.8893 12.8973 4.78844 12.6688C4.69238 12.4447 4.5329 12.2536 4.32961 12.1189C4.12632 11.9843 3.88809 11.912 3.64427 11.9111H3.51545C3.11353 11.9111 2.72807 11.7514 2.44387 11.4672C2.15966 11.183 2 10.7975 2 10.3956C2 9.99369 2.15966 9.60823 2.44387 9.32403C2.72807 9.03983 3.11353 8.88016 3.51545 8.88016H3.58365C3.83445 8.8743 4.07769 8.79311 4.28174 8.64717C4.4858 8.50123 4.64122 8.29727 4.72782 8.06182C4.82868 7.83328 4.85877 7.57976 4.8142 7.33395C4.76963 7.08815 4.65245 6.86133 4.47777 6.68275L4.4323 6.63729C4.2914 6.49655 4.17962 6.32941 4.10336 6.14544C4.0271 5.96146 3.98784 5.76426 3.98784 5.56511C3.98784 5.36595 4.0271 5.16875 4.10336 4.98478C4.17962 4.8008 4.2914 4.63367 4.4323 4.49292C4.57305 4.35202 4.74019 4.24024 4.92416 4.16398C5.10813 4.08771 5.30533 4.04846 5.50449 4.04846C5.70364 4.04846 5.90084 4.08771 6.08482 4.16398C6.26879 4.24024 6.43593 4.35202 6.57667 4.49292L6.62214 4.53839C6.80072 4.71307 7.02753 4.83025 7.27334 4.87482C7.51914 4.91939 7.77266 4.8893 8.0012 4.78844H8.06182C8.28593 4.69238 8.47707 4.5329 8.6117 4.32961C8.74632 4.12632 8.81857 3.88809 8.81955 3.64427V3.51545C8.81955 3.11353 8.97921 2.72807 9.26341 2.44387C9.54761 2.15966 9.93308 2 10.335 2C10.7369 2 11.1224 2.15966 11.4066 2.44387C11.6908 2.72807 11.8505 3.11353 11.8505 3.51545V3.58365C11.8514 3.82748 11.9237 4.0657 12.0583 4.26899C12.1929 4.47228 12.3841 4.63177 12.6082 4.72782C12.8367 4.82868 13.0902 4.85877 13.336 4.8142C13.5818 4.76963 13.8087 4.65245 13.9872 4.47777L14.0327 4.4323C14.1735 4.2914 14.3406 4.17962 14.5246 4.10336C14.7085 4.0271 14.9057 3.98784 15.1049 3.98784C15.304 3.98784 15.5012 4.0271 15.6852 4.10336C15.8692 4.17962 16.0363 4.2914 16.1771 4.4323C16.318 4.57305 16.4298 4.74019 16.506 4.92416C16.5823 5.10813 16.6215 5.30533 16.6215 5.50449C16.6215 5.70364 16.5823 5.90084 16.506 6.08482C16.4298 6.26879 16.318 6.43593 16.1771 6.57667L16.1316 6.62214C15.9569 6.80072 15.8397 7.02753 15.7952 7.27334C15.7506 7.51914 15.7807 7.77266 15.8816 8.0012V8.06182C15.9776 8.28593 16.1371 8.47707 16.3404 8.6117C16.5437 8.74632 16.7819 8.81857 17.0257 8.81955H17.1545C17.5565 8.81955 17.9419 8.97921 18.2261 9.26341C18.5103 9.54761 18.67 9.93308 18.67 10.335C18.67 10.7369 18.5103 11.1224 18.2261 11.4066C17.9419 11.6908 17.5565 11.8505 17.1545 11.8505H17.0863C16.8425 11.8514 16.6043 11.9237 16.401 12.0583C16.1977 12.1929 16.0382 12.3841 15.9422 12.6082V12.6082Z" stroke="#01040D" stroke-width="1.4" stroke-linecap="round" stroke-linejoin="round"/>
</svg>
